<mxfile host="app.diagrams.net" modified="2022-09-17T05:32:57.976Z" agent="5.0 (Macintosh; Intel Mac OS X 10_15_7) AppleWebKit/537.36 (KHTML, like Gecko) Chrome/105.0.0.0 Safari/537.36" etag="Es2hSCSmApdcltRUCjc3" version="20.3.1" type="github">
  <diagram id="5ItabI0L-aJkeAmClQsJ" name="Page-1">
    <mxGraphModel dx="1483" dy="891" grid="0" gridSize="10" guides="1" tooltips="1" connect="1" arrows="1" fold="1" page="0" pageScale="1" pageWidth="850" pageHeight="1100" math="0" shadow="0">
      <root>
        <mxCell id="0" />
        <mxCell id="1" parent="0" />
        <mxCell id="ddSuEjS7bLo-dLGvem3C-1" value="" style="rounded=1;whiteSpace=wrap;html=1;" vertex="1" parent="1">
          <mxGeometry x="120" y="160" width="200" height="480" as="geometry" />
        </mxCell>
        <mxCell id="ddSuEjS7bLo-dLGvem3C-2" value="" style="rounded=1;whiteSpace=wrap;html=1;" vertex="1" parent="1">
          <mxGeometry x="480" y="160" width="200" height="480" as="geometry" />
        </mxCell>
        <mxCell id="ddSuEjS7bLo-dLGvem3C-3" value="" style="rounded=1;whiteSpace=wrap;html=1;" vertex="1" parent="1">
          <mxGeometry x="840" y="160" width="200" height="480" as="geometry" />
        </mxCell>
        <mxCell id="ddSuEjS7bLo-dLGvem3C-4" value="Web Application Layer" style="text;html=1;strokeColor=none;fillColor=none;align=center;verticalAlign=middle;whiteSpace=wrap;rounded=0;" vertex="1" parent="1">
          <mxGeometry x="40" y="240" width="60" height="30" as="geometry" />
        </mxCell>
        <mxCell id="ddSuEjS7bLo-dLGvem3C-5" value="Service Layer" style="text;html=1;strokeColor=none;fillColor=none;align=center;verticalAlign=middle;whiteSpace=wrap;rounded=0;" vertex="1" parent="1">
          <mxGeometry x="40" y="480" width="60" height="30" as="geometry" />
        </mxCell>
        <mxCell id="ddSuEjS7bLo-dLGvem3C-6" value="Cart&amp;nbsp;" style="text;html=1;align=center;verticalAlign=middle;resizable=0;points=[];autosize=1;strokeColor=none;fillColor=none;" vertex="1" parent="1">
          <mxGeometry x="180" y="100" width="50" height="30" as="geometry" />
        </mxCell>
        <mxCell id="ddSuEjS7bLo-dLGvem3C-7" value="Website" style="text;html=1;align=center;verticalAlign=middle;resizable=0;points=[];autosize=1;strokeColor=none;fillColor=none;" vertex="1" parent="1">
          <mxGeometry x="525" y="95" width="70" height="30" as="geometry" />
        </mxCell>
        <mxCell id="ddSuEjS7bLo-dLGvem3C-8" value="Payment" style="text;html=1;align=center;verticalAlign=middle;resizable=0;points=[];autosize=1;strokeColor=none;fillColor=none;" vertex="1" parent="1">
          <mxGeometry x="895" y="100" width="70" height="30" as="geometry" />
        </mxCell>
        <mxCell id="ddSuEjS7bLo-dLGvem3C-9" value="SPA" style="rounded=1;whiteSpace=wrap;html=1;" vertex="1" parent="1">
          <mxGeometry x="160" y="225" width="120" height="35" as="geometry" />
        </mxCell>
        <mxCell id="ddSuEjS7bLo-dLGvem3C-10" value="React&amp;nbsp;" style="rounded=1;whiteSpace=wrap;html=1;" vertex="1" parent="1">
          <mxGeometry x="160" y="290" width="120" height="40" as="geometry" />
        </mxCell>
        <mxCell id="ddSuEjS7bLo-dLGvem3C-11" value="Cart&amp;nbsp;" style="rounded=1;whiteSpace=wrap;html=1;" vertex="1" parent="1">
          <mxGeometry x="160" y="360" width="120" height="40" as="geometry" />
        </mxCell>
        <mxCell id="ddSuEjS7bLo-dLGvem3C-12" value="Cart Service&amp;nbsp;" style="rounded=1;whiteSpace=wrap;html=1;" vertex="1" parent="1">
          <mxGeometry x="160" y="530" width="120" height="40" as="geometry" />
        </mxCell>
        <mxCell id="ddSuEjS7bLo-dLGvem3C-13" value="" style="endArrow=none;dashed=1;html=1;dashPattern=1 3;strokeWidth=2;rounded=0;entryX=0.5;entryY=1;entryDx=0;entryDy=0;" edge="1" parent="1" target="ddSuEjS7bLo-dLGvem3C-11">
          <mxGeometry width="50" height="50" relative="1" as="geometry">
            <mxPoint x="220" y="530" as="sourcePoint" />
            <mxPoint x="270" y="480" as="targetPoint" />
          </mxGeometry>
        </mxCell>
        <mxCell id="ddSuEjS7bLo-dLGvem3C-14" value="Gatsby&amp;nbsp;" style="rounded=1;whiteSpace=wrap;html=1;" vertex="1" parent="1">
          <mxGeometry x="525" y="212.5" width="120" height="60" as="geometry" />
        </mxCell>
        <mxCell id="ddSuEjS7bLo-dLGvem3C-16" value="Landing Service&amp;nbsp;" style="rounded=1;whiteSpace=wrap;html=1;" vertex="1" parent="1">
          <mxGeometry x="525" y="530" width="120" height="40" as="geometry" />
        </mxCell>
        <mxCell id="ddSuEjS7bLo-dLGvem3C-17" value="React&amp;nbsp;" style="rounded=1;whiteSpace=wrap;html=1;" vertex="1" parent="1">
          <mxGeometry x="525" y="290" width="120" height="40" as="geometry" />
        </mxCell>
        <mxCell id="ddSuEjS7bLo-dLGvem3C-19" value="SPA" style="rounded=1;whiteSpace=wrap;html=1;" vertex="1" parent="1">
          <mxGeometry x="890" y="212.5" width="120" height="35" as="geometry" />
        </mxCell>
        <mxCell id="ddSuEjS7bLo-dLGvem3C-20" value="React&amp;nbsp;" style="rounded=1;whiteSpace=wrap;html=1;" vertex="1" parent="1">
          <mxGeometry x="890" y="272.5" width="120" height="40" as="geometry" />
        </mxCell>
        <mxCell id="ddSuEjS7bLo-dLGvem3C-21" value="checkout&amp;nbsp;" style="rounded=1;whiteSpace=wrap;html=1;" vertex="1" parent="1">
          <mxGeometry x="890" y="340" width="120" height="40" as="geometry" />
        </mxCell>
        <mxCell id="ddSuEjS7bLo-dLGvem3C-22" value="Checkout Service&amp;nbsp;" style="rounded=1;whiteSpace=wrap;html=1;" vertex="1" parent="1">
          <mxGeometry x="890" y="530" width="120" height="40" as="geometry" />
        </mxCell>
        <mxCell id="ddSuEjS7bLo-dLGvem3C-23" value="" style="endArrow=none;dashed=1;html=1;dashPattern=1 3;strokeWidth=2;rounded=0;entryX=0.5;entryY=1;entryDx=0;entryDy=0;exitX=0.5;exitY=0;exitDx=0;exitDy=0;" edge="1" parent="1" source="ddSuEjS7bLo-dLGvem3C-22" target="ddSuEjS7bLo-dLGvem3C-21">
          <mxGeometry width="50" height="50" relative="1" as="geometry">
            <mxPoint x="470" y="370" as="sourcePoint" />
            <mxPoint x="520" y="320" as="targetPoint" />
            <Array as="points">
              <mxPoint x="950" y="460" />
            </Array>
          </mxGeometry>
        </mxCell>
        <mxCell id="ddSuEjS7bLo-dLGvem3C-24" value="" style="endArrow=none;dashed=1;html=1;dashPattern=1 3;strokeWidth=2;rounded=0;entryX=0.5;entryY=1;entryDx=0;entryDy=0;exitX=0.5;exitY=0;exitDx=0;exitDy=0;" edge="1" parent="1" source="ddSuEjS7bLo-dLGvem3C-16" target="ddSuEjS7bLo-dLGvem3C-17">
          <mxGeometry width="50" height="50" relative="1" as="geometry">
            <mxPoint x="470" y="370" as="sourcePoint" />
            <mxPoint x="520" y="320" as="targetPoint" />
            <Array as="points" />
          </mxGeometry>
        </mxCell>
      </root>
    </mxGraphModel>
  </diagram>
</mxfile>
